<svg width="40" height="43" viewBox="0 0 40 43" fill="none" xmlns="http://www.w3.org/2000/svg">
<path fill-rule="evenodd" clip-rule="evenodd" d="M3.84329 24.4713C3.84329 24.074 4.16575 23.7518 4.56345 23.7518C4.96112 23.7518 5.28353 24.074 5.28353 24.4713V27.3495C5.28353 27.7469 4.96112 28.069 4.56345 28.069C4.16575 28.069 3.84329 27.7469 3.84329 27.3495V24.4713ZM6.72373 25.9106C6.72373 25.5131 7.04623 25.1909 7.44394 25.1909C7.8416 25.1909 8.16397 25.5131 8.16397 25.9106V28.7886C8.16397 29.1859 7.8416 29.5083 7.44394 29.5083C7.04623 29.5083 6.72373 29.1859 6.72373 28.7886V25.9106ZM33.7093 29.0526C33.3736 28.8396 32.9287 28.9388 32.7152 29.2742C32.5106 29.5961 32.5928 30.0218 32.9028 30.2443C34.8821 31.5759 35.4063 34.2588 34.0736 36.2366C32.741 38.2144 30.0558 38.7383 28.0766 37.4066C26.0971 36.0749 25.573 33.3919 26.9057 31.4143C27.7081 30.2232 29.0507 29.5089 30.4875 29.5083C30.8852 29.5083 31.2076 29.1859 31.2076 28.7886C31.2076 28.3912 30.8852 28.069 30.4875 28.069C27.3059 28.0697 24.727 30.6473 24.7277 33.8265C24.7283 37.0056 27.308 39.5824 30.4897 39.5818C33.6713 39.5812 36.2502 37.0035 36.2495 33.8244C36.2492 31.9108 35.2971 30.1224 33.7093 29.0526ZM34.0881 25.9824C36.3752 27.0294 38.0919 29.0205 38.7896 31.4355C40.1127 36.0152 37.4698 40.7995 32.8864 42.1214C28.303 43.4435 23.515 40.8027 22.1918 36.223L17.892 38.7621C17.8808 38.7687 17.869 38.7731 17.8573 38.7774C17.8496 38.7803 17.8419 38.7832 17.8344 38.7867C17.8145 38.7965 17.7941 38.8051 17.7733 38.8125C17.6146 38.8788 17.4362 38.8788 17.2777 38.8125C17.2571 38.8051 17.2369 38.7965 17.2173 38.7867C17.1974 38.7795 17.1779 38.7713 17.1589 38.7621L1.31644 29.4083C1.09727 29.2786 0.962805 29.0431 0.962891 28.7886V10.0806C0.962891 10.0681 0.965519 10.0563 0.968165 10.0445C0.970111 10.0358 0.972067 10.0271 0.972996 10.018C0.973866 10.0093 0.975433 10.0007 0.976991 9.99227C0.979282 9.97981 0.981553 9.96746 0.981553 9.95473C0.99484 9.87201 1.02232 9.79244 1.06295 9.71935V9.71432C1.06417 9.71214 1.06647 9.71037 1.0687 9.70865C1.07165 9.70637 1.07448 9.7042 1.07448 9.7013C1.1173 9.63428 1.1711 9.57501 1.23366 9.52585C1.23648 9.52358 1.23927 9.5213 1.24205 9.51904C1.2534 9.5098 1.26454 9.50073 1.27615 9.49258C1.28233 9.48829 1.28785 9.48345 1.29333 9.47864C1.3006 9.47225 1.3078 9.46592 1.31644 9.46104L17.1589 0.107052C17.3849 -0.0265693 17.6659 -0.0265693 17.892 0.107052L33.7346 9.46104C33.9537 9.59052 34.0882 9.82604 34.0881 10.0806V25.9824ZM21.2701 3.77305L17.5255 1.5618L3.0987 10.0806L6.84404 12.2917L13.5591 8.32627C13.9017 8.12403 14.3436 8.23749 14.546 8.57998C14.7485 8.92233 14.6347 9.3637 14.2922 9.56613L8.25978 13.1278L12.0044 15.3389L26.4311 6.82331L22.6865 4.6121L16.4511 8.29107C16.1085 8.49331 15.6666 8.37966 15.4642 8.0375C15.2617 7.69515 15.3754 7.25345 15.718 7.0514L21.2701 3.77305ZM11.2842 21.3903V16.5859L7.56408 14.3892V19.1937L11.2842 21.3903ZM21.8462 33.8254C21.8435 33.0747 21.9391 32.327 22.1307 31.6011C23.3428 27.0084 28.0516 24.2675 32.6478 25.4787V10.4908L27.8476 7.65647L13.4209 16.1751L17.5255 18.5992L30.5638 10.9001C30.9062 10.6979 31.348 10.8112 31.5505 11.1534C31.7529 11.4956 31.6393 11.9368 31.297 12.1392L18.2455 19.8455V31.6668C18.2455 32.0642 17.9232 32.3864 17.5255 32.3864C17.1278 32.3864 16.8053 32.0642 16.8053 31.6668V19.8455L12.7245 17.4357V22.6516C12.7245 23.0491 12.4021 23.3711 12.0044 23.3711C11.8754 23.371 11.7488 23.3366 11.6379 23.2711L6.47747 20.224C6.25808 20.0942 6.12362 19.8584 6.12397 19.6037V13.5386L2.40305 11.342V28.3786L16.8053 36.8821V34.545C16.8053 34.1476 17.1278 33.8254 17.5255 33.8254C17.9232 33.8254 18.2455 34.1476 18.2455 34.545V36.8821L21.8937 34.727C21.8622 34.4274 21.8463 34.1266 21.8462 33.8254ZM23.2863 33.8254C23.2863 37.7993 26.5105 41.0209 30.4875 41.0209C34.4629 41.0165 37.6844 37.7976 37.6886 33.8254C37.6886 29.8514 34.4646 26.63 30.4875 26.63C26.5105 26.63 23.2863 29.8514 23.2863 33.8254ZM32.1388 31.8777C32.4178 31.6082 32.8603 31.6082 33.1394 31.8777C33.4254 32.1536 33.4333 32.6093 33.157 32.895L29.9165 36.1331C29.6353 36.4139 29.1794 36.4139 28.8983 36.1331L27.8181 35.0538C27.5485 34.7749 27.5485 34.3327 27.8181 34.0539C28.0944 33.768 28.5503 33.76 28.8363 34.0363L29.4073 34.6069L32.1388 31.8777Z" fill="#00A2FF"/>
</svg>
