<svg width="25" height="25" viewBox="0 0 25 25" fill="none" xmlns="http://www.w3.org/2000/svg">
<g clip-path="url(#clip0_5_68)">
<path d="M19.9584 10.5544H20.9681C21.2359 10.5544 21.4927 10.6608 21.6821 10.8502C21.8714 11.0395 21.9778 11.2964 21.9778 11.5642V21.6614C21.9778 21.9292 21.8714 22.186 21.6821 22.3754C21.4927 22.5648 21.2359 22.6712 20.9681 22.6712H4.81246C4.54466 22.6712 4.28784 22.5648 4.09848 22.3754C3.90912 22.186 3.80273 21.9292 3.80273 21.6614L3.80273 11.5642C3.80273 11.2964 3.90912 11.0395 4.09848 10.8502C4.28784 10.6608 4.54466 10.5544 4.81246 10.5544H5.82219V9.54471C5.82219 8.61651 6.00501 7.69741 6.36021 6.83987C6.71542 5.98233 7.23605 5.20315 7.89238 4.54682C8.54871 3.89049 9.32789 3.36985 10.1854 3.01465C11.043 2.65944 11.9621 2.47662 12.8903 2.47662C13.8185 2.47662 14.7376 2.65944 15.5951 3.01465C16.4526 3.36985 17.2318 3.89049 17.8882 4.54682C18.5445 5.20315 19.0651 5.98233 19.4203 6.83987C19.7755 7.69741 19.9584 8.61651 19.9584 9.54471V10.5544ZM5.82219 12.5739L5.82219 20.6517H19.9584V12.5739L5.82219 12.5739ZM11.8805 14.5933H13.9L13.9 18.6322H11.8805L11.8805 14.5933ZM17.9389 10.5544V9.54471C17.9389 8.20573 17.407 6.92159 16.4602 5.97479C15.5134 5.02798 14.2293 4.49608 12.8903 4.49608C11.5513 4.49608 10.2672 5.02798 9.32035 5.97479C8.37355 6.92159 7.84164 8.20573 7.84164 9.54471L7.84164 10.5544H17.9389Z" fill="white"/>
</g>
<defs>
<clipPath id="clip0_5_68">
<rect width="24.2334" height="24.2334" fill="white" transform="translate(0.773926 0.457214)"/>
</clipPath>
</defs>
</svg>
