<svg width="25" height="25" viewBox="0 0 25 25" fill="none" xmlns="http://www.w3.org/2000/svg">
<g clip-path="url(#clip0_5_60)">
<path d="M3.8027 3.48639L21.9778 3.48639C22.2456 3.48639 22.5024 3.59277 22.6918 3.78213C22.8811 3.97149 22.9875 4.22832 22.9875 4.49612V20.6517C22.9875 20.9195 22.8811 21.1764 22.6918 21.3657C22.5024 21.5551 22.2456 21.6615 21.9778 21.6615H3.8027C3.5349 21.6615 3.27807 21.5551 3.08871 21.3657C2.89935 21.1764 2.79297 20.9195 2.79297 20.6517L2.79297 4.49612C2.79297 4.22832 2.89935 3.97149 3.08871 3.78213C3.27807 3.59277 3.5349 3.48639 3.8027 3.48639ZM20.968 7.76561L12.9629 14.9347L4.81242 7.7434L4.81242 19.642H20.968V7.76561ZM5.32839 5.50584L12.9518 12.2326L20.4652 5.50584L5.32839 5.50584Z" fill="white"/>
</g>
<defs>
<clipPath id="clip0_5_60">
<rect width="24.2334" height="24.2334" fill="white" transform="translate(0.773926 0.457214)"/>
</clipPath>
</defs>
</svg>
