<svg width="103" height="103" viewBox="0 0 103 103" fill="none" xmlns="http://www.w3.org/2000/svg">
<g id="Icon">
<path id="BG" d="M51.5 3.18745C78.1823 3.18745 99.8124 24.8176 99.8124 51.5C99.8124 78.1821 78.1823 99.8123 51.5 99.8123C24.8177 99.8123 3.18745 78.1821 3.18745 51.5C3.18745 24.8176 24.8177 3.18745 51.5 3.18745Z" fill="#F3B622" fill-opacity="0.01" stroke="#F3B622" stroke-width="3"/>
<path id="Combined shape 3985" fill-rule="evenodd" clip-rule="evenodd" d="M75.4353 59.5262C74.4696 59.4555 72.477 60.512 71.9327 60.7836C69.9913 61.7393 67.2899 63.2383 65.5129 64.4355C65.3896 64.5159 65.2253 64.6266 65.1021 64.7072C64.3009 65.2101 63.4586 65.5423 62.5238 65.7434C57.3676 66.8198 49.8589 66.9305 49.8589 66.9305L49.4173 66.9506C49.0887 66.9707 48.7908 66.7393 48.7497 66.4276C48.6982 66.0854 48.955 65.7633 49.3249 65.7332L60.4901 64.697C61.7226 64.5663 62.6985 63.4396 62.565 62.172C62.4314 60.9042 61.2399 59.9787 60.0073 60.1094L50.0747 59.989C49.3968 59.9787 48.3183 59.8179 47.6711 59.6268C41.272 57.7956 37.6563 59.5061 35.7356 60.3109C35.3041 59.6165 34.4927 59.164 33.5888 59.2241L29.3056 59.5061C27.8778 59.5964 26.8096 60.7633 26.9021 62.1115L27.5902 71.4274C27.6929 72.7755 28.9254 73.7916 30.3533 73.6909L34.6365 73.4091C35.5405 73.3489 36.28 72.8056 36.5983 72.0611L55.4159 72.8559C57.5113 73.0773 59.4732 72.8258 61.3221 71.8801L61.8562 71.6086L76.0824 63.4597C76.7808 63.0572 77.2738 62.363 77.3047 61.5986C77.3355 60.663 76.791 59.6268 75.4353 59.5262ZM31.9249 71.4878C31.1237 71.4878 30.4663 70.8741 30.4663 70.1094C30.4663 69.3447 31.1237 68.7314 31.9249 68.7314C32.7261 68.7314 33.3834 69.3447 33.3834 70.1094C33.3834 70.8741 32.7261 71.4878 31.9249 71.4878ZM64.6604 60.9546C66.1601 60.1498 69.0978 58.7615 70.7002 58.1476C71.5013 57.8359 72.2922 57.8562 73.0214 58.3389C72.4463 58.5401 71.9123 58.7917 71.4088 59.0331C69.7242 59.858 66.7557 61.4375 65.3075 62.4336C65.1638 62.5341 65.0096 62.6348 64.8658 62.7353C64.8864 62.4837 64.8864 62.2224 64.8556 61.9609C64.8248 61.6287 64.7425 61.3168 64.6399 61.015C64.6399 60.9949 64.6502 60.9747 64.6604 60.9546ZM69.1491 57.2121C67.9883 57.7153 65.7594 58.4798 64.7014 59.0532L63.9824 59.4355C63.9106 59.4758 63.849 59.516 63.7873 59.5663C63.4688 59.194 63.0888 58.8822 62.6676 58.6307C63.6538 58.1177 65.8519 57.4235 66.8482 57.0412C67.6494 56.7293 68.4199 56.7495 69.1491 57.2121ZM38.7041 50.8541C38.7041 50.2706 39.1868 49.7978 39.7826 49.7978H66.6634C67.2591 49.7978 67.7418 50.2706 67.7418 50.8541C67.7418 51.4376 67.2591 51.9105 66.6634 51.9105H39.7723C39.1868 51.9105 38.7041 51.4376 38.7041 50.8541ZM38.7041 54.6771C38.7041 54.0933 39.1868 53.6204 39.7826 53.6204H66.6634C67.2591 53.6204 67.7418 54.0933 67.7418 54.6771C67.7418 55.2604 67.2591 55.7334 66.6634 55.7334H39.7723C39.1868 55.7334 38.7041 55.2604 38.7041 54.6771ZM59.7197 39.315C59.7197 38.4899 60.4078 37.8159 61.2502 37.8159C62.0925 37.8159 62.7806 38.4899 62.7806 39.315C62.7806 40.1398 62.0925 40.814 61.2502 40.814C60.3978 40.814 59.7197 40.1398 59.7197 39.315ZM43.6652 39.315C43.6652 38.4899 44.3534 37.8159 45.1956 37.8159C46.0379 37.8159 46.7262 38.4899 46.7262 39.315C46.7262 40.1398 46.0379 40.814 45.1956 40.814C44.343 40.814 43.6652 40.1398 43.6652 39.315ZM41.2001 48.1278H65.2355C66.6223 48.1278 67.7521 47.0212 67.7521 45.663V32.9668C67.7521 31.6087 66.6223 30.502 65.2355 30.502H41.2001C39.8132 30.502 38.6835 31.6087 38.6835 32.9668V45.663C38.6835 47.0212 39.8132 48.1278 41.2001 48.1278ZM40.8302 35.5223C40.974 35.5524 41.1281 35.5624 41.2822 35.5624C42.6894 35.5624 43.8297 34.4458 43.8297 33.0674C43.8297 32.9066 43.8091 32.7557 43.7885 32.6048H62.5033C62.452 32.7961 62.4211 33.0072 62.4211 33.2186C62.4211 34.5967 63.5613 35.7132 64.9685 35.7132C65.1841 35.7132 65.4 35.6831 65.5951 35.6329V43.2888C65.3896 43.2386 65.1841 43.2085 64.9685 43.2085C63.5613 43.2085 62.4211 44.325 62.4211 45.7031C62.4211 45.8038 62.4314 45.9145 62.4417 46.015H43.7885C43.8194 45.8641 43.8297 45.7134 43.8297 45.5522C43.8297 44.1742 42.6894 43.0573 41.2822 43.0573C41.1281 43.0573 40.9843 43.0676 40.8302 43.0977V35.5223ZM53.2178 44.7275C56.2685 44.7275 58.7337 42.3029 58.7337 39.325C58.7337 36.3472 56.2582 33.9228 53.2178 33.9228C50.1671 33.9228 47.702 36.3472 47.702 39.325C47.702 42.3029 50.1671 44.7275 53.2178 44.7275ZM51.2354 40.4617L52.2625 40.4416C52.3654 40.4416 52.4577 40.5121 52.468 40.6128C52.4885 40.8744 52.5707 41.0654 52.6939 41.1862C52.8481 41.3371 53.0535 41.4176 53.3 41.4176C53.5054 41.4176 53.6595 41.3574 53.7725 41.2364C53.8751 41.1156 53.9368 40.9647 53.9368 40.7738C53.9368 40.5522 53.8854 40.3814 53.7725 40.2606C53.6595 40.1398 53.4643 40.0192 53.1869 39.8983C52.509 39.6368 52.016 39.3653 51.7079 39.0936C51.3997 38.822 51.2457 38.4196 51.2457 37.8964C51.2457 37.4235 51.41 37.0314 51.7387 36.7195C52.0366 36.4378 52.4268 36.2667 52.8993 36.1963V35.4517C52.8993 35.3614 52.9815 35.2807 53.074 35.2807H53.7005C53.793 35.2807 53.8751 35.3614 53.8751 35.4517V36.2163C54.3273 36.3069 54.6866 36.5082 54.964 36.82C55.231 37.1217 55.3749 37.494 55.3953 37.9367C55.4056 38.0473 55.3029 38.138 55.1899 38.138L54.1525 38.1581C54.0498 38.1581 53.9574 38.0877 53.947 37.9869C53.9266 37.7657 53.865 37.5946 53.7725 37.4739C53.6492 37.323 53.4951 37.2525 53.2897 37.2525C53.0843 37.2525 52.9301 37.313 52.8378 37.4335C52.735 37.5544 52.6939 37.7153 52.6939 37.9064C52.6939 38.0976 52.7453 38.2587 52.8481 38.3794C52.9507 38.5001 53.1458 38.6207 53.4335 38.7515C54.1012 39.0333 54.5942 39.3049 54.9023 39.5865C55.2105 39.8682 55.3749 40.2606 55.3749 40.7738C55.3749 41.2667 55.2208 41.6591 54.9023 41.9607C54.6354 42.2124 54.2861 42.3832 53.865 42.4539V43.1679C53.865 43.2586 53.7827 43.3391 53.6903 43.3391H53.0637C52.9712 43.3391 52.8891 43.2586 52.8891 43.1679V42.4739C52.3551 42.4135 51.9134 42.2224 51.5642 41.9105C51.2354 41.619 51.0607 41.2062 51.03 40.663C51.03 40.5624 51.1326 40.4617 51.2354 40.4617Z" fill="#F3B622"/>
</g>
</svg>
