<svg width="31" height="35" viewBox="0 0 31 45" fill="none" xmlns="http://www.w3.org/2000/svg">
<path fill-rule="evenodd" clip-rule="evenodd" d="M28.094 3.96007H22.7497C22.4593 3.09677 21.6455 2.47313 20.6886 2.47313H18.4285C17.7425 1.54709 16.6559 0.986328 15.5049 0.986328C14.3538 0.986328 13.2672 1.54709 12.5813 2.47313H10.3212C9.36436 2.47313 8.55057 3.09677 8.26011 3.96007H2.91581C1.30806 3.96007 0 5.27329 0 6.88751V41.0865C0 42.7008 1.30806 44.014 2.91581 44.014H28.094C29.7018 44.014 31.0098 42.7008 31.0098 41.0865V6.88751C31.0098 5.27329 29.7018 3.96007 28.094 3.96007ZM8.26011 8.32801C8.55057 9.19131 9.36436 9.81495 10.3212 9.81495H20.6886C21.6455 9.81495 22.4593 9.19131 22.7497 8.32801H26.6592V39.6462H4.35057V8.32801H8.26011ZM10.3212 3.86719H12.9536C13.2007 3.86719 13.4293 3.73517 13.5536 3.52076C13.9676 2.80659 14.6971 2.38025 15.5049 2.38025C16.3127 2.38025 17.0422 2.80659 17.4561 3.52076C17.5805 3.73517 17.8091 3.86719 18.0562 3.86719H20.6886C21.1225 3.86719 21.4755 4.22157 21.4755 4.65726V7.62926L21.4754 7.631V7.63194C21.475 8.06697 21.1221 8.42088 20.6886 8.42088H10.3211C9.88782 8.42088 9.53533 8.06744 9.53428 7.63274L9.53442 7.631L9.53428 7.62733V4.65726C9.53428 4.22157 9.88736 3.86719 10.3212 3.86719ZM29.6214 41.0865C29.6214 41.9321 28.9361 42.6199 28.094 42.6199H2.91581C2.07365 42.6199 1.38838 41.9321 1.38838 41.0865V6.88751C1.38838 6.04198 2.07365 5.35427 2.91581 5.35427H8.14579V6.93413H3.65638C3.27278 6.93413 2.96205 7.24602 2.96205 7.631V40.3432C2.96205 40.7282 3.27278 41.0401 3.65638 41.0401H27.3534C27.737 41.0401 28.0477 40.7282 28.0477 40.3432V7.631C28.0477 7.24602 27.737 6.93413 27.3534 6.93413H22.864V5.35427H28.094C28.9361 5.35427 29.6214 6.04198 29.6214 6.88751V41.0865ZM15.5049 6.84107C15.8884 6.84107 16.1991 6.52904 16.1991 6.1442V4.65726C16.1991 4.27215 15.8884 3.96007 15.5049 3.96007C15.1214 3.96007 14.8107 4.27215 14.8107 4.65726V6.1442C14.8107 6.52904 15.1214 6.84107 15.5049 6.84107ZM20.6886 16.5061H16.2455C15.862 16.5061 15.5511 16.194 15.5511 15.8092C15.5511 15.424 15.862 15.112 16.2455 15.112H20.6886C21.0721 15.112 21.3829 15.424 21.3829 15.8092C21.3829 16.194 21.0721 16.5061 20.6886 16.5061ZM16.2455 19.4799H23.6508C24.0343 19.4799 24.345 19.168 24.345 18.7829C24.345 18.3978 24.0343 18.0859 23.6508 18.0859H16.2455C15.862 18.0859 15.5511 18.3978 15.5511 18.7829C15.5511 19.168 15.862 19.4799 16.2455 19.4799ZM9.58066 19.4799C9.40303 19.4799 9.2253 19.4118 9.08967 19.2758L6.86815 17.0454C6.59704 16.7733 6.59704 16.3319 6.86815 16.0596C7.13926 15.7876 7.57873 15.7876 7.84994 16.0596L9.58066 17.7972L12.7924 14.5728C13.0635 14.3007 13.5031 14.3007 13.7743 14.5728C14.0454 14.8449 14.0454 15.2863 13.7743 15.5584L10.0716 19.2758C9.93598 19.4118 9.75825 19.4799 9.58066 19.4799ZM16.2455 23.9406H20.6886C21.0721 23.9406 21.3829 23.6287 21.3829 23.2436C21.3829 22.8584 21.0721 22.5465 20.6886 22.5465H16.2455C15.862 22.5465 15.5511 22.8584 15.5511 23.2436C15.5511 23.6287 15.862 23.9406 16.2455 23.9406ZM23.6508 26.9145H16.2455C15.862 26.9145 15.5511 26.6024 15.5511 26.2173C15.5511 25.8325 15.862 25.5204 16.2455 25.5204H23.6508C24.0343 25.5204 24.345 25.8325 24.345 26.2173C24.345 26.6024 24.0343 26.9145 23.6508 26.9145ZM9.08967 26.7103C9.2253 26.8463 9.40303 26.9145 9.58066 26.9145C9.75825 26.9145 9.93598 26.8463 10.0716 26.7103L13.7743 22.9931C14.0454 22.7207 14.0454 22.2795 13.7743 22.0074C13.5031 21.7352 13.0635 21.7352 12.7924 22.0074L9.58066 25.2318L7.84994 23.4943C7.57873 23.2222 7.13926 23.2222 6.86815 23.4943C6.59704 23.7666 6.59704 24.2078 6.86815 24.4801L9.08967 26.7103ZM20.6886 31.3751H16.2455C15.862 31.3751 15.5511 31.0632 15.5511 30.6782C15.5511 30.2931 15.862 29.9812 16.2455 29.9812H20.6886C21.0721 29.9812 21.3829 30.2931 21.3829 30.6782C21.3829 31.0632 21.0721 31.3751 20.6886 31.3751ZM16.2455 34.349H23.6508C24.0343 34.349 24.345 34.0371 24.345 33.652C24.345 33.2669 24.0343 32.955 23.6508 32.955H16.2455C15.862 32.955 15.5511 33.2669 15.5511 33.652C15.5511 34.0371 15.862 34.349 16.2455 34.349ZM9.58066 34.349C9.40303 34.349 9.2253 34.281 9.08967 34.1451L6.86815 31.9145C6.59704 31.6424 6.59704 31.2011 6.86815 30.9289C7.13926 30.6567 7.57873 30.6567 7.84994 30.9289L9.58066 32.6663L12.7924 29.4419C13.0635 29.1698 13.5031 29.1698 13.7743 29.4419C14.0454 29.7142 14.0454 30.1552 13.7743 30.4276L10.0716 34.1451C9.93598 34.281 9.75825 34.349 9.58066 34.349Z" fill="#F48665"/>
</svg>
