<svg width="103" height="103" viewBox="0 0 103 103" fill="none" xmlns="http://www.w3.org/2000/svg">
<g id="Icon">
<path id="BG" d="M51.5 3.18745C78.1821 3.18745 99.8124 24.8176 99.8124 51.5C99.8124 78.1821 78.1822 99.8123 51.5 99.8123C24.8177 99.8123 3.18745 78.1821 3.18745 51.5C3.18745 24.8176 24.8177 3.18745 51.5 3.18745Z" fill="#FF5274" fill-opacity="0.01" stroke="#FF5274" stroke-width="3"/>
<path id="Combined shape 3997" fill-rule="evenodd" clip-rule="evenodd" d="M73.3861 41.7055C73.3745 39.4182 71.5048 37.5575 69.2182 37.5575H60.4169C59.152 37.5575 57.9706 38.1222 57.1762 39.1063L55.2024 41.5514L53.3522 37.8743C53.1655 37.5035 52.8655 37.2282 52.5158 37.0675V34.5126L54.4941 32.5337L55.0742 33.8998C56.4476 33.3165 57.0882 31.7299 56.5049 30.3561C55.9216 28.9825 54.3354 28.3417 52.9616 28.9253L53.8762 31.079H48.4062C48.2726 31.079 48.1524 31.1595 48.1012 31.2828C48.0499 31.4059 48.0783 31.5481 48.1726 31.6426L51.0419 34.5123V37.0683C51.0338 37.0721 51.0257 37.0755 51.0175 37.0789L51.0175 37.079L51.0174 37.079C51.0073 37.0832 50.9972 37.0875 50.9872 37.0925C50.1182 37.5298 49.7681 38.589 50.2055 39.458L53.2835 45.5755C53.5841 46.1726 54.1941 46.5451 54.857 46.5451C55.3858 46.5451 55.8908 46.3069 56.2272 45.8902L59.631 41.6736C59.6559 41.6429 59.6975 41.631 59.7347 41.6443C59.7721 41.6576 59.7969 41.6926 59.7969 41.7323L59.7977 57.8596H64.0246V54.4394H64.039C63.9499 54.2573 63.8984 54.0535 63.8984 53.8375V51.4356C62.6652 51.1823 61.6755 50.1675 61.5148 48.8487C61.3238 47.2792 62.3762 45.846 63.8984 45.5346V45.1553C63.8984 44.4573 64.4209 43.8701 65.1139 43.7891L68.3447 43.4122C68.6139 43.3807 68.8841 43.4297 69.1259 43.5522V41.725C69.1259 41.522 69.2904 41.357 69.4935 41.3562C69.6968 41.3557 69.862 41.5197 69.863 41.7228V41.7229C69.8663 42.334 69.8689 42.8028 69.871 43.18L69.8712 43.2144L69.8712 43.2164C69.8749 43.8773 69.877 44.2531 69.8782 44.6288C69.8797 45.1219 69.8795 45.6151 69.8792 46.7533V46.7562V46.7594V46.763V46.7669V46.7731V46.7806C69.8791 47.4546 69.8788 48.3525 69.8788 49.6047L71.8668 49.3627C72.754 49.2546 73.4198 48.4989 73.4153 47.6051C73.4119 46.812 73.3902 42.4876 73.3861 41.7055ZM68.1554 32.7426C68.1554 30.7265 66.5211 29.0918 64.5052 29.0918C62.4892 29.0918 60.8548 30.7265 60.8548 32.7426C60.8548 34.7591 62.4892 36.3937 64.5052 36.3937C66.5211 36.3937 68.1554 34.7591 68.1554 32.7426ZM63.8825 72.0954C63.3346 71.3557 62.483 70.8539 61.513 70.779H61.5131V65.2918H64.0253V71.3362C64.0253 71.6041 63.9732 71.8596 63.8825 72.0954ZM64.9378 65.2918V71.3362C64.9378 72.5037 65.8841 73.4501 67.0513 73.4501C68.2188 73.4501 69.1649 72.5038 69.1649 71.3362V65.2883L69.1465 65.2894C69.1007 65.2923 69.0548 65.2923 67.6731 65.2921H67.6702C67.0588 65.2919 66.1864 65.2918 64.9378 65.2918ZM67.6452 57.8593H67.644H67.6306C67.0213 57.8595 66.1597 57.8596 64.9378 57.8596V55.1691C65.0454 55.1965 65.1576 55.2125 65.2738 55.2125H68.5044C68.7437 55.2125 68.9686 55.151 69.1648 55.0431V57.8631L69.1464 57.8619C69.1006 57.8591 69.0545 57.8591 67.6499 57.8593H67.6487H67.6475H67.6464H67.6452ZM63.8987 50.1379C63.2982 49.9171 62.8394 49.3763 62.7569 48.6974C62.656 47.8694 63.148 47.1069 63.8987 46.8323V50.1379ZM68.5044 54.1584C68.6814 54.1584 68.8251 54.0147 68.8251 53.8375V44.7783C68.8251 44.5862 68.6574 44.4374 68.4673 44.4599L65.2365 44.8367C65.075 44.8556 64.953 44.9925 64.953 45.1553V53.8375C64.953 54.0147 65.0966 54.1584 65.2738 54.1584H68.5044ZM47.4567 59.667H69.044C69.2456 59.667 69.4093 59.8304 69.4088 60.0323V63.1191C69.4088 63.3207 69.2454 63.4842 69.0438 63.4842H59.7056V72.5766H61.2593C62.0629 72.5766 62.7146 73.2283 62.7146 74.0323C62.7146 74.8361 62.063 75.4878 61.2593 75.4878H55.2413C54.4376 75.4878 53.7859 74.8361 53.7859 74.0323C53.7859 73.2283 54.4374 72.5766 55.2413 72.5766H56.7948V63.4842H47.4567C47.2549 63.4842 47.0914 63.3207 47.0914 63.1191V60.0323C47.0914 59.8304 47.2549 59.667 47.4567 59.667ZM42.5031 38.0653C44.5802 38.0653 46.264 39.7494 46.264 41.8267C46.264 43.9042 44.5802 45.5883 42.5031 45.5883C40.4261 45.5883 38.7423 43.9042 38.7423 41.8267C38.7423 39.7494 40.4261 38.0653 42.5031 38.0653ZM43.9697 60.1796C44.6174 60.3872 45.1314 60.8853 45.3598 61.5261L49.2947 72.5708C49.6994 73.7071 49.1068 74.9559 47.9711 75.3609C46.8357 75.7655 45.5867 75.1734 45.1817 74.0369L42.1277 65.4656V74.0312C42.1277 74.835 41.4762 75.4869 40.6724 75.4869C39.8685 75.4869 39.2169 74.8352 39.2169 74.0312V65.7427H32.4948V74.0312C32.4948 74.835 31.8433 75.4869 31.0394 75.4869C30.2356 75.4869 29.584 74.8352 29.584 74.0312V64.2938C29.584 63.4887 30.2369 62.8312 31.0733 62.8312H33.3546C33.2821 62.7639 33.2131 62.6919 33.1497 62.6143C32.7377 62.1098 32.5738 61.447 32.7036 60.8088L35.2092 48.4817C35.5044 47.0294 36.9758 46.1373 38.3986 46.5451L42.5542 47.736C43.9031 48.1225 44.6833 49.5294 44.2968 50.8785L44.2642 50.9924L42.079 49.2475L45.3125 53.8143L51.1421 53.6413C52.1495 53.6094 52.9846 54.4017 53.0147 55.406C53.0445 56.4107 52.2544 57.2493 51.2501 57.2792L44.4457 57.4811C44.4278 57.4816 44.4096 57.4818 44.3916 57.4818C43.8028 57.4818 43.2488 57.1962 42.9069 56.7136L39.1098 51.3508L41.3602 57.8094C41.4953 58.1958 41.7287 58.5351 42.0279 58.8007L41.8295 59.4936L43.9697 60.1796Z" fill="#FF5274"/>
</g>
</svg>
