<svg width="103" height="103" viewBox="0 0 103 103" fill="none" xmlns="http://www.w3.org/2000/svg">
<path d="M51.4999 3.18745C78.1821 3.18745 99.8123 24.8176 99.8123 51.5C99.8123 78.1821 78.1822 99.8123 51.4999 99.8123C24.8176 99.8123 3.18745 78.1821 3.18745 51.5C3.18745 24.8176 24.8176 3.18745 51.4999 3.18745Z" fill="#1D8FF7" fill-opacity="0.01" stroke="#1D8FF7" stroke-width="3"/>
<path fill-rule="evenodd" clip-rule="evenodd" d="M54.4928 36.44C54.4928 34.6439 53.0395 33.188 51.2466 33.188C49.4537 33.188 48.0002 34.6439 48.0002 36.44C48.0002 38.2358 49.4537 39.6917 51.2466 39.6917C53.0395 39.6917 54.4928 38.2358 54.4928 36.44ZM45.0315 56.5846L44.3995 64.6409C44.318 65.6776 45.0911 66.584 46.1259 66.6652C47.1006 66.7424 47.9624 66.0579 48.1247 65.1081V56.5844H45.0315V56.5846ZM58.648 64.4676L57.2859 56.5847H53.9919V59.5963L54.9445 65.1095C55.1217 66.135 56.0951 66.821 57.1168 66.6437C58.1396 66.4663 58.8252 65.4921 58.648 64.4676ZM34.0964 34.7003C36.0927 34.7003 37.7112 36.3215 37.7112 38.3213C37.7112 40.3211 36.0927 41.9426 34.0964 41.9426C32.1001 41.9426 30.4817 40.3211 30.4817 38.3213C30.4817 36.3215 32.1001 34.7003 34.0964 34.7003ZM48.4711 47.1133C48.8875 47.1125 49.287 47.2776 49.5817 47.5724C49.8762 47.8672 50.0418 48.2671 50.0418 48.6841V48.6871C50.0418 49.5578 49.3372 50.2634 48.4681 50.2634H47.696V50.0157C47.505 48.5207 46.3569 47.3672 44.9312 47.1196C45.0495 47.1192 45.9932 47.1176 47.0381 47.1158L48.4711 47.1133ZM59.1228 43.1187C58.4375 41.6667 56.9583 40.7281 55.3548 40.7281H47.1193C45.5153 40.7281 44.0365 41.6665 43.351 43.1187L41.362 47.3341L44.0406 47.0843C44.3439 47.0559 44.6413 47.0694 44.928 47.1188L46.1827 44.4598V44.4595L46.1834 44.4581C46.1874 44.4497 46.1915 44.4413 46.1957 44.4331C46.2939 44.2396 46.5119 44.1391 46.7227 44.1897C46.9335 44.2404 47.082 44.4291 47.082 44.6464V45.6767L48.1296 45.6743V43.7944C48.1296 43.5699 48.3434 43.4068 48.5592 43.4663L49.6807 43.7751L51.2484 44.2068L52.9836 43.729L53.9376 43.4663C54.1538 43.4067 54.3674 43.5699 54.3674 43.7944V45.6885H55.3777V44.65C55.3777 44.4293 55.5285 44.2378 55.7424 44.1865C55.9564 44.1351 56.1778 44.2369 56.2777 44.4331L56.2815 44.4408L56.2816 44.441C56.2848 44.4474 56.2879 44.4537 56.2909 44.4604L56.5937 45.1018L57.5418 47.1109H53.9771C53.1081 47.1109 52.4033 47.8167 52.4033 48.6874C52.4033 49.558 53.1078 50.2639 53.9771 50.2639H54.6738C54.9732 48.5936 56.5049 47.403 58.2225 47.5631L61.3586 47.8558L59.9273 44.8232L59.1228 43.1187ZM71.4814 38.9934C71.4814 37.0378 69.8988 35.4523 67.9466 35.4523C65.9943 35.4523 64.4116 37.0378 64.4116 38.9934C64.4116 40.9492 65.9943 42.5345 67.9466 42.5345C69.8988 42.5345 71.4814 40.9492 71.4814 38.9934ZM77.4697 45.4195C76.752 45.2774 76.0546 45.7467 75.9133 46.4665L73.6275 58.1141H71.958C72.119 58.0091 72.2705 57.888 72.4074 57.749C72.9082 57.2398 73.1856 56.5518 73.1783 55.837L73.0887 46.7255C73.0739 45.2315 71.8443 44.0365 70.3538 44.0659L67.887 44.1147C66.3976 44.1441 65.2171 45.3856 65.2593 46.877L65.286 47.822L68.9136 45.5322L64.7688 49.8784L58.065 49.2529C57.1835 49.17 56.4037 49.8191 56.3219 50.7013C56.2746 51.2094 56.4702 51.6833 56.8121 52.0103C55.5924 52.0103 46.0457 52.0103 44.8458 52.0103C45.5663 51.7833 46.0565 51.0776 45.9838 50.294C45.8999 49.3917 45.1014 48.728 44.2011 48.8124L37.3455 49.4521L33.1068 45.0079L36.8164 47.3497L36.8438 46.3831C36.887 44.8574 35.6792 43.5882 34.1564 43.558L31.634 43.5083C30.1091 43.478 28.8064 44.7013 28.7913 46.228V55.5458C28.7823 56.4633 29.187 57.3496 29.9914 57.8745H28.2863L25.9492 45.9631C25.8046 45.2271 25.0919 44.7477 24.3572 44.8924C23.6225 45.0369 23.144 45.7511 23.2884 46.4869L25.8408 59.4949C25.9043 59.8185 26.0799 60.0959 26.3222 60.2908V64.196V68.4167C26.3222 68.9169 26.7268 69.3222 27.2261 69.3222C27.7253 69.3222 28.13 68.9171 28.13 68.4167V65.1015H36.2222L36.2587 65.1965L35.6931 66.6285C35.2938 67.6395 35.7881 68.7834 36.7975 69.1835C37.807 69.5835 38.9488 69.0881 39.348 68.0774C44.1254 55.9844 43.8309 56.745 43.8754 56.5847C44.0512 55.9497 43.9032 55.2446 43.428 54.7269C44.1195 54.7269 49.0215 54.7269 49.7025 54.7269V66.606C49.0001 66.606 48.5567 66.606 47.8478 66.606C47.099 66.606 46.492 67.2142 46.492 67.9641C46.492 68.7142 47.099 69.3222 47.8478 69.3222C49.3113 69.3222 52.808 69.3222 54.2686 69.3222C55.0174 69.3222 55.6243 68.7142 55.6243 67.9641C55.6243 67.2141 55.0172 66.606 54.2686 66.606C53.5599 66.606 53.1163 66.606 52.4139 66.606V54.7269C55.5142 54.7269 55.8199 54.7269 58.8701 54.7269C59.053 54.7269 59.2271 54.69 59.3862 54.6245C58.5301 55.0477 58.0629 56.0861 58.4481 57.0611L62.8107 68.1048C63.2014 69.0945 64.319 69.5775 65.3049 69.1865C66.2919 68.7955 66.7754 67.6767 66.3847 66.6879L65.829 65.281L65.8675 65.181H73.7807V68.4369C73.7807 68.9256 74.1764 69.322 74.6643 69.322C75.1525 69.322 75.5483 68.9256 75.5483 68.4369V64.2955V60.4768C75.785 60.2862 75.9569 60.0149 76.0189 59.6981L78.5149 46.9787C78.6561 46.259 78.1881 45.5609 77.4697 45.4195ZM28.13 63.2907V60.5907H34.4857L35.5251 63.2907H28.13ZM37.2401 62.7127L36.4233 60.5907H36.6615C37.4102 60.5907 38.0172 59.9827 38.0172 59.2326C38.0172 58.7189 37.7322 58.2722 37.3122 58.0414L39.0876 58.0363L37.2401 62.7127ZM41.8905 53.3689C41.8905 53.6174 41.9584 53.8497 42.075 54.0503H36.0532C35.2808 54.0503 34.5636 53.6484 34.1584 52.9896C32.9484 51.0214 30.4791 47.0062 30.4915 47.0304C30.4853 47.0199 30.4751 46.9982 30.4751 46.9982L35.5246 52.293C35.8637 52.6487 36.3525 52.8403 36.8606 52.7931L42.449 52.2718C42.111 52.5187 41.8905 52.9175 41.8905 53.3689ZM64.8697 62.8522L63.0659 58.2859L64.7789 58.2912C64.3811 58.52 64.1125 58.9494 64.1125 59.4423C64.1125 60.1758 64.7059 60.7704 65.4382 60.7704H65.6712L64.8697 62.8522ZM60.2404 54.4274C60.2384 54.4274 60.2368 54.4274 60.2349 54.4274C59.9566 54.4274 59.6967 54.486 59.463 54.5887C59.9142 54.3681 60.2258 53.9056 60.2258 53.3689C60.2258 53.3653 60.2254 53.362 60.2254 53.3584C60.2254 53.3549 60.2258 53.3517 60.2258 53.3481C60.2258 53.0959 60.1548 52.8607 60.0336 52.6593L65.2429 53.1452C65.7441 53.1916 66.2206 53.001 66.5496 52.656L71.4886 47.4772C71.4886 47.4772 71.4773 47.4992 71.4711 47.5098L67.9103 53.3387C67.4905 54.0258 66.7405 54.4464 65.9363 54.444C64.0692 54.4386 60.7862 54.4288 60.2404 54.4274ZM73.7807 63.4102H66.5493L67.5656 60.7703H73.7807V63.4102Z" fill="#1D8FF7"/>
</svg>
